<?xml version="1.0"?>
<svg xmlns="http://www.w3.org/2000/svg" width="512" height="512" viewBox="0 0 128 128"><g><path d="M35.689,82.134A13.25,13.25,0,0,0,23,91.425a1.75,1.75,0,0,0,3.338,1.054,9.761,9.761,0,0,1,9.349-6.845,1.75,1.75,0,1,0,0-3.5Z"/><path d="M73.619,70.554a1.75,1.75,0,0,0,0,3.5A15.653,15.653,0,0,1,89.2,89.39a1.75,1.75,0,0,0,1.749,1.722h.028A1.752,1.752,0,0,0,92.7,89.334,19.169,19.169,0,0,0,73.619,70.554Z"/><path d="M127.418,56.7a1.755,1.755,0,0,0-1.926-.274,35.184,35.184,0,0,1-15.36,3.484A35.536,35.536,0,0,1,76.608,12.6,1.75,1.75,0,0,0,74.2,10.441a39.259,39.259,0,0,0-22.155,35.2A38.772,38.772,0,0,0,57.99,66.3a27.962,27.962,0,0,0-9.532,10.868,22.293,22.293,0,0,0-33.59,10.284,15.143,15.143,0,0,0,.275,30.283h85.245A15.143,15.143,0,0,0,101.615,87.5a27.638,27.638,0,0,0-.631-4.114,39.249,39.249,0,0,0,26.917-24.8A1.751,1.751,0,0,0,127.418,56.7Zm-15.387,45.891a11.655,11.655,0,0,1-11.643,11.642H15.143a11.643,11.643,0,1,1,0-23.285c.238,0,.471.018.705.034l.125.009a1.738,1.738,0,0,0,1.791-1.219A18.792,18.792,0,0,1,48,81.239a1.75,1.75,0,0,0,2.773-.674A24.532,24.532,0,0,1,61.091,68.473a1.731,1.731,0,0,0,.33-.178c.021-.015.038-.034.059-.05a24.609,24.609,0,0,1,36.714,21,1.75,1.75,0,0,0,.543,1.239,1.782,1.782,0,0,0,1.265.482l.386-.021A11.656,11.656,0,0,1,112.031,102.589ZM99.982,80.032a28.085,28.085,0,0,0-38.967-15.5,35.282,35.282,0,0,1-5.471-18.89A35.77,35.77,0,0,1,72.1,15.6a39.042,39.042,0,0,0,38.035,47.8A38.764,38.764,0,0,0,123,61.24,35.765,35.765,0,0,1,99.982,80.032Z"/><path d="M66.266,30.047a1.748,1.748,0,0,0-2.377.691,30.936,30.936,0,0,0-1.553,26.623,1.75,1.75,0,0,0,3.24-1.325,27.432,27.432,0,0,1,1.381-23.613A1.751,1.751,0,0,0,66.266,30.047Z"/></g></svg>
